<?xml version="1.0" encoding="UTF-8"?>
<!DOCTYPE svg PUBLIC "-//W3C//DTD SVG 1.1//EN" "http://www.w3.org/Graphics/SVG/1.1/DTD/svg11.dtd">
<!-- Creator: CorelDRAW -->
<svg xmlns="http://www.w3.org/2000/svg" xml:space="preserve" width="151px" height="30px" version="1.1" style="shape-rendering:geometricPrecision; text-rendering:geometricPrecision; image-rendering:optimizeQuality; fill-rule:evenodd; clip-rule:evenodd"
viewBox="0 0 151 30.05"
 xmlns:xlink="http://www.w3.org/1999/xlink"
 xmlns:xodm="http://www.corel.com/coreldraw/odm/2003">
 <defs>
  <style type="text/css">
   <![CDATA[
    .fil0 {fill:white}
    .fil1 {fill:#F59E0B;fill-rule:nonzero}
    .fil3 {fill:#FBBF24;fill-rule:nonzero}
    .fil2 {fill:white;fill-rule:nonzero}
   ]]>
  </style>
 </defs>
 <g id="Camada_x0020_1">
  <metadata id="CorelCorpID_0Corel-Layer"/>
  <path class="fil0" d="M24.2 10.55c2.4,0 4.34,1.94 4.34,4.34 0,2.4 -1.94,4.34 -4.34,4.34 -2.39,0 -4.33,-1.94 -4.33,-4.34 0,-2.4 1.94,-4.34 4.33,-4.34zm6.07 9.05l2.97 2.97 -9.04 0c-4.24,0 -7.67,-3.44 -7.67,-7.68 0,-4.24 3.43,-7.68 7.67,-7.68 4.25,0 7.68,3.44 7.68,7.68 0,1.05 -0.21,2.05 -0.59,2.96 -0.26,0.63 -0.61,1.22 -1.02,1.75zm2.97 2.97l0.38 0c0.92,-1.13 1.64,-2.42 2.11,-3.83 0.4,-1.21 0.62,-2.5 0.62,-3.85 0,-6.71 -5.44,-12.15 -12.15,-12.15 -6.7,0 -12.14,5.44 -12.14,12.15 0,6.71 5.44,12.15 12.14,12.15l13.51 0 -4.27 -4.26 -0.2 -0.21zm0 0z"/>
  <path class="fil1" d="M24.28 10.34c-2.51,0 -4.55,2.04 -4.55,4.56 0,2.52 2.04,4.56 4.55,4.56 2.52,0 4.56,-2.04 4.56,-4.56 0,-2.52 -2.04,-4.56 -4.56,-4.56z"/>
  <path class="fil2" d="M44.36 8.38l2.45 0 0 7.34c0,0.57 -0.12,1.12 -0.36,1.65 -0.24,0.53 -0.56,0.99 -0.97,1.39 -0.42,0.41 -0.89,0.72 -1.44,0.96 -0.54,0.24 -1.13,0.36 -1.75,0.36 -0.62,0 -1.2,-0.12 -1.75,-0.36 -0.55,-0.24 -1.03,-0.55 -1.44,-0.96 -0.4,-0.4 -0.73,-0.86 -0.96,-1.39 -0.24,-0.53 -0.36,-1.08 -0.36,-1.65l0 -7.34 2.45 0 0 6.85c0,0.33 0.05,0.63 0.16,0.92 0.11,0.28 0.26,0.54 0.44,0.76 0.18,0.22 0.4,0.39 0.65,0.52 0.26,0.14 0.52,0.2 0.81,0.2 0.29,0 0.55,-0.06 0.8,-0.2 0.25,-0.13 0.47,-0.3 0.66,-0.52 0.19,-0.22 0.34,-0.48 0.45,-0.76 0.11,-0.29 0.16,-0.59 0.16,-0.92l0 -6.85zm0 0z"/>
  <path class="fil2" d="M55.29 8.38l4.79 11.48 -2.65 0 -1.04 -2.46 -4.87 0 -1.03 2.46 -2.67 0 4.8 -11.48 2.67 0zm0.18 6.79l-1.51 -3.62 -1.51 3.62 3.02 0zm0 0z"/>
  <path class="fil2" d="M65.84 8.38c0.83,0 1.56,0.15 2.2,0.46 0.64,0.3 1.17,0.7 1.6,1.22 0.43,0.52 0.75,1.13 0.97,1.83 0.22,0.71 0.33,1.45 0.33,2.24 0,0.8 -0.11,1.55 -0.35,2.24 -0.23,0.7 -0.55,1.31 -0.96,1.83 -0.41,0.51 -0.9,0.92 -1.46,1.22 -0.56,0.3 -1.17,0.44 -1.83,0.44l-5.13 0 0 -11.48 4.63 0zm0.02 9.27c0.46,0 0.86,-0.1 1.19,-0.28 0.32,-0.19 0.6,-0.45 0.81,-0.78 0.22,-0.32 0.38,-0.7 0.48,-1.12 0.1,-0.42 0.16,-0.86 0.16,-1.33 0,-0.46 -0.05,-0.9 -0.15,-1.33 -0.1,-0.43 -0.26,-0.8 -0.47,-1.12 -0.22,-0.33 -0.49,-0.59 -0.83,-0.78 -0.33,-0.2 -0.73,-0.3 -1.19,-0.3l-2.19 0 0 7.04 2.19 0zm0 0z"/>
  <path class="fil2" d="M80.51 11.8c0,0.37 -0.05,0.71 -0.16,1.04 -0.1,0.33 -0.24,0.64 -0.42,0.91 -0.19,0.28 -0.41,0.52 -0.67,0.73 -0.26,0.21 -0.54,0.38 -0.84,0.51l3.8 4.87 -2.86 0 -3.55 -4.63 -1.1 0 0 4.63 -2.46 0 0 -11.48 4.95 0c0.46,0 0.89,0.09 1.29,0.27 0.4,0.18 0.75,0.42 1.05,0.73 0.3,0.31 0.53,0.67 0.71,1.08 0.17,0.42 0.26,0.86 0.26,1.34zm-3.61 1.19c0.31,0 0.58,-0.11 0.8,-0.34 0.23,-0.24 0.35,-0.52 0.35,-0.85 0,-0.33 -0.12,-0.61 -0.35,-0.84 -0.22,-0.23 -0.49,-0.35 -0.8,-0.35l-2.19 0 0 2.38 2.19 0zm0 0z"/>
  <path class="fil2" d="M90.43 8.38l4.79 11.48 -2.65 0 -1.04 -2.46 -4.87 0 -1.02 2.46 -2.68 0 4.8 -11.48 2.67 0zm0.18 6.79l-1.51 -3.62 -1.5 3.62 3.01 0zm0 0z"/>
  <path class="fil3" d="M100.97 8.38c0.83,0 1.57,0.15 2.2,0.46 0.64,0.3 1.18,0.7 1.6,1.22 0.43,0.52 0.75,1.13 0.97,1.83 0.22,0.71 0.34,1.45 0.34,2.24 0,0.8 -0.12,1.55 -0.35,2.24 -0.24,0.7 -0.56,1.31 -0.97,1.83 -0.41,0.51 -0.89,0.92 -1.46,1.22 -0.56,0.3 -1.17,0.44 -1.83,0.44l-5.13 0 0 -11.48 4.63 0zm0.02 9.27c0.46,0 0.86,-0.1 1.19,-0.28 0.33,-0.19 0.6,-0.45 0.81,-0.78 0.22,-0.32 0.38,-0.7 0.48,-1.12 0.1,-0.42 0.16,-0.86 0.16,-1.33 0,-0.46 -0.05,-0.9 -0.15,-1.33 -0.1,-0.43 -0.25,-0.8 -0.47,-1.12 -0.21,-0.33 -0.49,-0.59 -0.82,-0.78 -0.34,-0.2 -0.74,-0.3 -1.2,-0.3l-2.19 0 0 7.04 2.19 0zm0 0z"/>
  <path class="fil3" d="M112.8 8.22c0.78,0 1.52,0.15 2.21,0.47 0.69,0.31 1.29,0.74 1.81,1.28 0.51,0.54 0.91,1.16 1.21,1.88 0.3,0.71 0.45,1.47 0.45,2.28 0,0.8 -0.15,1.56 -0.45,2.29 -0.3,0.72 -0.7,1.35 -1.21,1.89 -0.52,0.54 -1.12,0.97 -1.81,1.29 -0.69,0.32 -1.43,0.48 -2.21,0.48 -0.77,0 -1.5,-0.16 -2.2,-0.48 -0.69,-0.32 -1.29,-0.75 -1.8,-1.29 -0.5,-0.54 -0.91,-1.17 -1.2,-1.89 -0.3,-0.73 -0.45,-1.49 -0.45,-2.29 0,-0.81 0.15,-1.57 0.45,-2.28 0.29,-0.72 0.7,-1.34 1.2,-1.88 0.51,-0.54 1.11,-0.97 1.8,-1.28 0.7,-0.32 1.43,-0.47 2.2,-0.47zm0 9.41c0.45,0 0.87,-0.09 1.26,-0.28 0.38,-0.18 0.72,-0.43 1.01,-0.75 0.29,-0.32 0.52,-0.69 0.69,-1.11 0.17,-0.42 0.25,-0.88 0.25,-1.36 0,-0.49 -0.08,-0.95 -0.25,-1.37 -0.17,-0.43 -0.4,-0.8 -0.69,-1.12 -0.29,-0.32 -0.63,-0.57 -1.01,-0.75 -0.39,-0.18 -0.81,-0.28 -1.26,-0.28 -0.44,0 -0.85,0.1 -1.24,0.28 -0.39,0.18 -0.73,0.43 -1.02,0.75 -0.3,0.32 -0.53,0.69 -0.69,1.12 -0.17,0.42 -0.25,0.88 -0.25,1.37 0,0.48 0.08,0.94 0.25,1.36 0.16,0.42 0.39,0.79 0.69,1.11 0.29,0.32 0.63,0.57 1.02,0.75 0.39,0.19 0.8,0.28 1.24,0.28zm0 0z"/>
  <path class="fil3" d="M123.94 8.38l0 2.07 -0.86 0 0 7.35 0.86 0 0 2.06 -4.17 0 0 -2.06 0.85 0 0 -7.35 -0.85 0 0 -2.07 4.17 0zm0 0z"/>
  <path class="fil3" d="M132.75 13.95c0.45,0.27 0.8,0.62 1.03,1.04 0.24,0.42 0.36,0.91 0.36,1.46 0,0.52 -0.12,1 -0.37,1.45 -0.25,0.45 -0.6,0.84 -1.05,1.18 -0.41,0.32 -0.88,0.56 -1.4,0.73 -0.53,0.17 -1.08,0.26 -1.66,0.27 -0.59,0 -1.15,-0.08 -1.68,-0.24 -0.52,-0.17 -0.99,-0.41 -1.4,-0.74 -0.62,-0.46 -1.04,-1.02 -1.26,-1.68l2.27 -1.05c0,0.1 0.03,0.24 0.11,0.4 0.07,0.16 0.19,0.32 0.35,0.47 0.17,0.15 0.38,0.28 0.64,0.39 0.25,0.11 0.57,0.16 0.95,0.16 0.3,0 0.57,-0.03 0.8,-0.11 0.23,-0.08 0.43,-0.17 0.59,-0.29 0.15,-0.11 0.27,-0.24 0.35,-0.38 0.08,-0.15 0.12,-0.3 0.12,-0.45 0,-0.17 -0.06,-0.33 -0.17,-0.49 -0.11,-0.15 -0.29,-0.27 -0.52,-0.35 -0.44,-0.15 -0.89,-0.28 -1.37,-0.38 -0.48,-0.1 -0.95,-0.24 -1.41,-0.39 -0.45,-0.16 -0.87,-0.37 -1.26,-0.63 -0.39,-0.25 -0.69,-0.61 -0.92,-1.08 -0.21,-0.41 -0.31,-0.85 -0.31,-1.31 0,-0.52 0.12,-1.02 0.37,-1.51 0.24,-0.48 0.57,-0.89 0.99,-1.23 0.4,-0.32 0.85,-0.55 1.35,-0.72 0.49,-0.17 1.02,-0.25 1.57,-0.25 0.55,0 1.07,0.08 1.58,0.24 0.5,0.17 0.95,0.4 1.35,0.71 0.39,0.29 0.7,0.63 0.93,1.02l-1.85 1.27c-0.23,-0.32 -0.51,-0.57 -0.85,-0.76 -0.34,-0.19 -0.73,-0.28 -1.14,-0.28 -0.59,0 -1.04,0.13 -1.36,0.39 -0.31,0.26 -0.47,0.6 -0.47,1.02 0,0.19 0.08,0.37 0.26,0.52 0.18,0.15 0.41,0.28 0.7,0.4 0.28,0.12 0.61,0.23 0.96,0.32 0.36,0.09 0.71,0.19 1.06,0.28 0.35,0.09 0.68,0.18 1,0.28 0.31,0.1 0.56,0.2 0.76,0.32zm0 0z"/>
  <path class="fil2" d="M42.88 25.88l0 -3.86 0.27 0 0 3.86 -0.27 0zm0 0z"/>
  <path class="fil2" d="M50.36 25.88l0 -1.88c0,-0.28 -0.05,-0.49 -0.16,-0.61 -0.11,-0.13 -0.28,-0.2 -0.5,-0.2 -0.29,0 -0.51,0.09 -0.65,0.25 -0.15,0.16 -0.22,0.41 -0.22,0.76l0 1.68 -0.26 0 0 -1.96c0,-0.48 -0.22,-0.73 -0.66,-0.73 -0.31,0 -0.53,0.09 -0.66,0.27 -0.14,0.17 -0.21,0.45 -0.21,0.83l0 1.59 -0.26 0 0 -2.87 0.22 0 0.05 0.39 0.02 0c0.08,-0.14 0.19,-0.25 0.34,-0.32 0.14,-0.08 0.3,-0.12 0.48,-0.12 0.45,0 0.74,0.17 0.87,0.5l0.01 0c0.09,-0.16 0.22,-0.28 0.38,-0.37 0.16,-0.09 0.33,-0.13 0.53,-0.13 0.32,0 0.55,0.08 0.7,0.25 0.16,0.17 0.24,0.43 0.24,0.79l0 1.88 -0.26 0zm0 0z"/>
  <path class="fil2" d="M56.52 24.44c0,0.47 -0.11,0.83 -0.34,1.1 -0.22,0.26 -0.54,0.39 -0.94,0.39 -0.25,0 -0.47,-0.06 -0.66,-0.18 -0.2,-0.12 -0.34,-0.29 -0.44,-0.52 -0.1,-0.23 -0.15,-0.49 -0.15,-0.79 0,-0.47 0.11,-0.83 0.33,-1.09 0.23,-0.26 0.54,-0.39 0.94,-0.39 0.39,0 0.7,0.13 0.93,0.4 0.22,0.26 0.33,0.62 0.33,1.08zm-2.26 0c0,0.39 0.09,0.7 0.26,0.92 0.17,0.22 0.42,0.33 0.73,0.33 0.32,0 0.56,-0.11 0.73,-0.33 0.18,-0.22 0.27,-0.53 0.27,-0.92 0,-0.4 -0.09,-0.7 -0.27,-0.92 -0.17,-0.22 -0.42,-0.33 -0.73,-0.33 -0.32,0 -0.57,0.11 -0.74,0.33 -0.16,0.22 -0.25,0.52 -0.25,0.92zm0.81 -1.87c0.13,-0.15 0.25,-0.3 0.38,-0.46 0.12,-0.16 0.21,-0.28 0.25,-0.37l0.38 0 0 0.05c-0.06,0.09 -0.17,0.21 -0.33,0.36 -0.15,0.15 -0.32,0.3 -0.5,0.46l-0.18 0 0 -0.04zm0 0z"/>
  <path class="fil2" d="M60.54 25.88l-1.1 -2.87 0.27 0 0.74 1.95c0.1,0.25 0.17,0.47 0.22,0.65l0.01 0c0.07,-0.24 0.15,-0.45 0.23,-0.65l0.74 -1.95 0.27 0 -1.11 2.87 -0.27 0zm0 0z"/>
  <path class="fil2" d="M66.16 25.93c-0.42,0 -0.75,-0.13 -0.98,-0.38 -0.23,-0.26 -0.35,-0.62 -0.35,-1.08 0,-0.46 0.12,-0.82 0.34,-1.1 0.22,-0.27 0.53,-0.41 0.91,-0.41 0.34,0 0.6,0.12 0.8,0.35 0.19,0.24 0.29,0.55 0.29,0.96l0 0.21 -2.06 0c0,0.39 0.09,0.69 0.27,0.9 0.18,0.21 0.44,0.31 0.78,0.31 0.16,0 0.3,-0.01 0.42,-0.03 0.13,-0.02 0.29,-0.07 0.48,-0.15l0 0.24c-0.17,0.07 -0.32,0.12 -0.45,0.14 -0.14,0.02 -0.29,0.04 -0.45,0.04zm-0.08 -2.74c-0.28,0 -0.5,0.09 -0.67,0.27 -0.16,0.18 -0.26,0.45 -0.28,0.79l1.76 0c0,-0.33 -0.07,-0.59 -0.22,-0.78 -0.14,-0.19 -0.34,-0.28 -0.59,-0.28zm0 0z"/>
  <path class="fil2" d="M70.83 25.88l-0.27 0 0 -2.87 0.27 0 0 2.87zm-0.3 -3.66c0,-0.17 0.05,-0.26 0.17,-0.26 0.05,0 0.09,0.02 0.12,0.07 0.03,0.04 0.05,0.11 0.05,0.19 0,0.08 -0.02,0.14 -0.05,0.18 -0.03,0.05 -0.07,0.07 -0.12,0.07 -0.12,0 -0.17,-0.08 -0.17,-0.25zm0 0z"/>
  <path class="fil2" d="M76.17 25.13c0,0.26 -0.1,0.46 -0.3,0.6 -0.19,0.13 -0.47,0.2 -0.83,0.2 -0.38,0 -0.69,-0.06 -0.91,-0.18l0 -0.28c0.29,0.15 0.59,0.22 0.91,0.22 0.29,0 0.5,-0.05 0.65,-0.14 0.14,-0.1 0.22,-0.22 0.22,-0.38 0,-0.14 -0.06,-0.26 -0.18,-0.36 -0.11,-0.1 -0.31,-0.2 -0.58,-0.29 -0.28,-0.1 -0.48,-0.19 -0.6,-0.27 -0.11,-0.07 -0.2,-0.16 -0.26,-0.25 -0.06,-0.1 -0.09,-0.21 -0.09,-0.35 0,-0.21 0.09,-0.38 0.27,-0.51 0.18,-0.12 0.43,-0.18 0.76,-0.18 0.31,0 0.6,0.06 0.88,0.17l-0.1 0.24c-0.28,-0.12 -0.54,-0.18 -0.78,-0.18 -0.24,0 -0.43,0.04 -0.56,0.12 -0.14,0.08 -0.21,0.19 -0.21,0.32 0,0.15 0.06,0.27 0.16,0.36 0.11,0.09 0.32,0.19 0.63,0.3 0.26,0.09 0.44,0.18 0.56,0.25 0.12,0.08 0.21,0.16 0.27,0.26 0.05,0.09 0.09,0.2 0.09,0.33zm0 0z"/>
  <path class="fil2" d="M85.69 25.88l-2.11 0 0 -3.86 2.11 0 0 0.25 -1.84 0 0 1.46 1.73 0 0 0.24 -1.73 0 0 1.66 1.84 0 0 0.25zm0 0z"/>
  <path class="fil2" d="M89.8 24.4l-1 -1.39 0.3 0 0.86 1.21 0.84 -1.21 0.29 0 -0.99 1.39 1.06 1.48 -0.31 0 -0.89 -1.28 -0.91 1.28 -0.29 0 1.04 -1.48zm0 0z"/>
  <path class="fil2" d="M95.53 25.93c-0.41,0 -0.73,-0.13 -0.96,-0.39 -0.23,-0.26 -0.35,-0.62 -0.35,-1.08 0,-0.47 0.12,-0.84 0.36,-1.1 0.24,-0.27 0.57,-0.4 0.99,-0.4 0.25,0 0.49,0.04 0.71,0.13l-0.07 0.23c-0.25,-0.08 -0.47,-0.13 -0.65,-0.13 -0.35,0 -0.61,0.11 -0.8,0.33 -0.18,0.22 -0.27,0.53 -0.27,0.94 0,0.38 0.09,0.69 0.27,0.91 0.19,0.21 0.44,0.32 0.76,0.32 0.26,0 0.51,-0.04 0.73,-0.14l0 0.24c-0.18,0.09 -0.42,0.14 -0.72,0.14zm0 0z"/>
  <path class="fil2" d="M99.81 25.88l-0.26 0 0 -4.11 0.26 0 0 4.11zm0 0z"/>
  <path class="fil2" d="M103.6 23.01l0 1.86c0,0.29 0.06,0.49 0.18,0.63 0.13,0.13 0.32,0.19 0.57,0.19 0.34,0 0.59,-0.08 0.75,-0.26 0.16,-0.17 0.24,-0.45 0.24,-0.84l0 -1.58 0.26 0 0 2.87 -0.22 0 -0.05 -0.4 -0.01 0c-0.19,0.3 -0.52,0.45 -1,0.45 -0.65,0 -0.97,-0.35 -0.97,-1.05l0 -1.87 0.25 0zm0 0z"/>
  <path class="fil2" d="M110.94 25.13c0,0.26 -0.1,0.46 -0.29,0.6 -0.2,0.13 -0.47,0.2 -0.83,0.2 -0.38,0 -0.69,-0.06 -0.92,-0.18l0 -0.28c0.29,0.15 0.6,0.22 0.92,0.22 0.28,0 0.5,-0.05 0.64,-0.14 0.15,-0.1 0.22,-0.22 0.22,-0.38 0,-0.14 -0.06,-0.26 -0.17,-0.36 -0.12,-0.1 -0.31,-0.2 -0.58,-0.29 -0.28,-0.1 -0.48,-0.19 -0.6,-0.27 -0.12,-0.07 -0.21,-0.16 -0.26,-0.25 -0.06,-0.1 -0.09,-0.21 -0.09,-0.35 0,-0.21 0.09,-0.38 0.27,-0.51 0.18,-0.12 0.43,-0.18 0.75,-0.18 0.31,0 0.61,0.06 0.88,0.17l-0.1 0.24c-0.28,-0.12 -0.54,-0.18 -0.78,-0.18 -0.23,0 -0.42,0.04 -0.56,0.12 -0.13,0.08 -0.2,0.19 -0.2,0.32 0,0.15 0.05,0.27 0.16,0.36 0.11,0.09 0.31,0.19 0.63,0.3 0.25,0.09 0.44,0.18 0.56,0.25 0.12,0.08 0.2,0.16 0.26,0.26 0.06,0.09 0.09,0.2 0.09,0.33zm0 0z"/>
  <path class="fil2" d="M114.54 25.88l-0.26 0 0 -2.87 0.26 0 0 2.87zm-0.29 -3.66c0,-0.17 0.05,-0.26 0.16,-0.26 0.06,0 0.1,0.02 0.13,0.07 0.03,0.04 0.05,0.11 0.05,0.19 0,0.08 -0.02,0.14 -0.05,0.18 -0.03,0.05 -0.07,0.07 -0.13,0.07 -0.11,0 -0.16,-0.08 -0.16,-0.25zm0 0z"/>
  <path class="fil2" d="M118.73 25.88l-1.1 -2.87 0.27 0 0.74 1.95c0.09,0.25 0.17,0.47 0.22,0.65l0.01 0c0.07,-0.24 0.15,-0.45 0.23,-0.65l0.74 -1.95 0.27 0 -1.11 2.87 -0.27 0zm0 0z"/>
  <path class="fil2" d="M125.56 24.44c0,0.47 -0.12,0.83 -0.34,1.1 -0.23,0.26 -0.54,0.39 -0.94,0.39 -0.25,0 -0.48,-0.06 -0.67,-0.18 -0.19,-0.12 -0.34,-0.29 -0.44,-0.52 -0.1,-0.23 -0.15,-0.49 -0.15,-0.79 0,-0.47 0.11,-0.83 0.34,-1.09 0.23,-0.26 0.54,-0.39 0.94,-0.39 0.39,0 0.7,0.13 0.92,0.4 0.23,0.26 0.34,0.62 0.34,1.08zm-2.26 0c0,0.39 0.08,0.7 0.25,0.92 0.18,0.22 0.42,0.33 0.74,0.33 0.31,0 0.56,-0.11 0.73,-0.33 0.17,-0.22 0.26,-0.53 0.26,-0.92 0,-0.4 -0.09,-0.7 -0.26,-0.92 -0.18,-0.22 -0.42,-0.33 -0.74,-0.33 -0.31,0 -0.56,0.11 -0.73,0.33 -0.17,0.22 -0.25,0.52 -0.25,0.92zm0 0z"/>
  <path class="fil2" d="M130.73 25.13c0,0.26 -0.1,0.46 -0.29,0.6 -0.2,0.13 -0.47,0.2 -0.83,0.2 -0.38,0 -0.69,-0.06 -0.92,-0.18l0 -0.28c0.29,0.15 0.59,0.22 0.92,0.22 0.28,0 0.5,-0.05 0.64,-0.14 0.15,-0.1 0.22,-0.22 0.22,-0.38 0,-0.14 -0.06,-0.26 -0.17,-0.36 -0.12,-0.1 -0.31,-0.2 -0.58,-0.29 -0.29,-0.1 -0.49,-0.19 -0.6,-0.27 -0.12,-0.07 -0.21,-0.16 -0.27,-0.25 -0.06,-0.1 -0.08,-0.21 -0.08,-0.35 0,-0.21 0.08,-0.38 0.26,-0.51 0.18,-0.12 0.44,-0.18 0.76,-0.18 0.31,0 0.61,0.06 0.88,0.17l-0.1 0.24c-0.28,-0.12 -0.54,-0.18 -0.78,-0.18 -0.23,0 -0.42,0.04 -0.56,0.12 -0.13,0.08 -0.2,0.19 -0.2,0.32 0,0.15 0.05,0.27 0.16,0.36 0.1,0.09 0.31,0.19 0.62,0.3 0.26,0.09 0.45,0.18 0.57,0.25 0.12,0.08 0.2,0.16 0.26,0.26 0.06,0.09 0.09,0.2 0.09,0.33zm0 0z"/>
 </g>
</svg>
